<?xml version="1.0" encoding="UTF-8" standalone="no"?>
<!DOCTYPE svg PUBLIC "-//W3C//DTD SVG 1.1//EN"
 "http://www.w3.org/Graphics/SVG/1.1/DTD/svg11.dtd">
<!-- Generated by graphviz version 2.38.0 (20140413.2041)
 -->
<!-- Title: progs/Ant&#45;mc&#45;corrections.cc Pages: 1 -->
<svg width="1655pt" height="207pt"
 viewBox="0.00 0.00 1654.50 207.00" xmlns="http://www.w3.org/2000/svg" xmlns:xlink="http://www.w3.org/1999/xlink">
<g id="graph0" class="graph" transform="scale(1 1) rotate(0) translate(4 203)">
<title>progs/Ant&#45;mc&#45;corrections.cc</title>
<polygon fill="white" stroke="none" points="-4,4 -4,-203 1650.5,-203 1650.5,4 -4,4"/>
<!-- Node0 -->
<g id="node1" class="node"><title>Node0</title>
<polygon fill="#bfbfbf" stroke="black" points="1018.5,-179.5 1018.5,-198.5 1170.5,-198.5 1170.5,-179.5 1018.5,-179.5"/>
<text text-anchor="middle" x="1094.5" y="-186.5" font-family="Helvetica,sans-Serif" font-size="10.00">progs/Ant&#45;mc&#45;corrections.cc</text>
</g>
<!-- Node1 -->
<g id="node2" class="node"><title>Node1</title>
<polygon fill="white" stroke="#bfbfbf" points="0,-118 0,-137 59,-137 59,-118 0,-118"/>
<text text-anchor="middle" x="29.5" y="-125" font-family="Helvetica,sans-Serif" font-size="10.00">iostream</text>
</g>
<!-- Node0&#45;&gt;Node1 -->
<g id="edge1" class="edge"><title>Node0&#45;&gt;Node1</title>
<path fill="none" stroke="midnightblue" d="M1018.24,-187.726C812.617,-186.498 250.017,-179.775 68.5,-143 65.2433,-142.34 61.8977,-141.449 58.6004,-140.432"/>
<polygon fill="midnightblue" stroke="midnightblue" points="59.5851,-137.069 48.9903,-137.103 57.2941,-143.683 59.5851,-137.069"/>
</g>
<!-- Node2 -->
<g id="node3" class="node"><title>Node2</title>
<polygon fill="white" stroke="#bfbfbf" points="601.5,-0.5 601.5,-19.5 645.5,-19.5 645.5,-0.5 601.5,-0.5"/>
<text text-anchor="middle" x="623.5" y="-7.5" font-family="Helvetica,sans-Serif" font-size="10.00">string</text>
</g>
<!-- Node0&#45;&gt;Node2 -->
<g id="edge2" class="edge"><title>Node0&#45;&gt;Node2</title>
<path fill="none" stroke="midnightblue" d="M1018.48,-188.565C846.171,-188.053 434.159,-176.148 348.5,-76 342.722,-69.245 342.744,-62.7739 348.5,-56 379.286,-19.7673 524.915,-12.6453 590.885,-11.2914"/>
<polygon fill="midnightblue" stroke="midnightblue" points="591.19,-14.7867 601.128,-11.1149 591.069,-7.78777 591.19,-14.7867"/>
</g>
<!-- Node3 -->
<g id="node4" class="node"><title>Node3</title>
<polygon fill="white" stroke="#bfbfbf" points="1024.5,-0.5 1024.5,-19.5 1086.5,-19.5 1086.5,-0.5 1024.5,-0.5"/>
<text text-anchor="middle" x="1055.5" y="-7.5" font-family="Helvetica,sans-Serif" font-size="10.00">algorithm</text>
</g>
<!-- Node0&#45;&gt;Node3 -->
<g id="edge3" class="edge"><title>Node0&#45;&gt;Node3</title>
<path fill="none" stroke="midnightblue" d="M1078.77,-179.236C1066.61,-171.481 1050.69,-158.929 1043.5,-143 1037.83,-130.442 1036.02,-123.57 1043.5,-112 1064.67,-79.2583 1102.33,-108.742 1123.5,-76 1128.33,-68.5355 1127.71,-63.83 1123.5,-56 1115.88,-41.8153 1101.6,-31.3516 1088.09,-24.1027"/>
<polygon fill="midnightblue" stroke="midnightblue" points="1089.47,-20.8791 1078.95,-19.5916 1086.37,-27.1562 1089.47,-20.8791"/>
</g>
<!-- Node4 -->
<g id="node5" class="node"><title>Node4</title>
<g id="a_node5"><a xlink:href="_logger_8h.html" target="_top" xlink:title="base/Logger.h">
<polygon fill="white" stroke="black" points="1052.5,-118 1052.5,-137 1136.5,-137 1136.5,-118 1052.5,-118"/>
<text text-anchor="middle" x="1094.5" y="-125" font-family="Helvetica,sans-Serif" font-size="10.00">base/Logger.h</text>
</a>
</g>
</g>
<!-- Node0&#45;&gt;Node4 -->
<g id="edge4" class="edge"><title>Node0&#45;&gt;Node4</title>
<path fill="none" stroke="midnightblue" d="M1094.5,-179.475C1094.5,-171.08 1094.5,-157.981 1094.5,-147.163"/>
<polygon fill="midnightblue" stroke="midnightblue" points="1098,-147.009 1094.5,-137.009 1091,-147.009 1098,-147.009"/>
</g>
<!-- Node6 -->
<g id="node7" class="node"><title>Node6</title>
<polygon fill="white" stroke="#bfbfbf" points="1154.5,-118 1154.5,-137 1248.5,-137 1248.5,-118 1154.5,-118"/>
<text text-anchor="middle" x="1201.5" y="-125" font-family="Helvetica,sans-Serif" font-size="10.00">tclap/CmdLine.h</text>
</g>
<!-- Node0&#45;&gt;Node6 -->
<g id="edge6" class="edge"><title>Node0&#45;&gt;Node6</title>
<path fill="none" stroke="midnightblue" d="M1109.83,-179.475C1127.47,-169.666 1156.66,-153.435 1177.36,-141.925"/>
<polygon fill="midnightblue" stroke="midnightblue" points="1179.16,-144.928 1186.2,-137.009 1175.76,-138.81 1179.16,-144.928"/>
</g>
<!-- Node7 -->
<g id="node8" class="node"><title>Node7</title>
<g id="a_node8"><a xlink:href="_wrap_t_file_8h.html" target="_top" xlink:title="base/WrapTFile.h">
<polygon fill="white" stroke="black" points="784,-118 784,-137 879,-137 879,-118 784,-118"/>
<text text-anchor="middle" x="831.5" y="-125" font-family="Helvetica,sans-Serif" font-size="10.00">base/WrapTFile.h</text>
</a>
</g>
</g>
<!-- Node0&#45;&gt;Node7 -->
<g id="edge7" class="edge"><title>Node0&#45;&gt;Node7</title>
<path fill="none" stroke="midnightblue" d="M1056.82,-179.475C1009.95,-168.871 929.894,-150.76 878.904,-139.224"/>
<polygon fill="midnightblue" stroke="midnightblue" points="879.637,-135.802 869.112,-137.009 878.093,-142.629 879.637,-135.802"/>
</g>
<!-- Node26 -->
<g id="node27" class="node"><title>Node26</title>
<polygon fill="white" stroke="#bfbfbf" points="1266.5,-118 1266.5,-137 1322.5,-137 1322.5,-118 1266.5,-118"/>
<text text-anchor="middle" x="1294.5" y="-125" font-family="Helvetica,sans-Serif" font-size="10.00">TROOT.h</text>
</g>
<!-- Node0&#45;&gt;Node26 -->
<g id="edge33" class="edge"><title>Node0&#45;&gt;Node26</title>
<path fill="none" stroke="midnightblue" d="M1129.47,-179.469C1162.7,-171.101 1213.91,-157.515 1257.5,-143 1259.76,-142.246 1262.09,-141.431 1264.43,-140.585"/>
<polygon fill="midnightblue" stroke="midnightblue" points="1265.77,-143.817 1273.9,-137.013 1263.3,-137.268 1265.77,-143.817"/>
</g>
<!-- Node27 -->
<g id="node28" class="node"><title>Node27</title>
<polygon fill="white" stroke="#bfbfbf" points="1341,-118 1341,-137 1390,-137 1390,-118 1341,-118"/>
<text text-anchor="middle" x="1365.5" y="-125" font-family="Helvetica,sans-Serif" font-size="10.00">TRint.h</text>
</g>
<!-- Node0&#45;&gt;Node27 -->
<g id="edge34" class="edge"><title>Node0&#45;&gt;Node27</title>
<path fill="none" stroke="midnightblue" d="M1159.79,-179.476C1207.91,-172.264 1274.6,-160.312 1331.5,-143 1333.64,-142.347 1335.84,-141.603 1338.03,-140.804"/>
<polygon fill="midnightblue" stroke="midnightblue" points="1339.42,-144.015 1347.42,-137.065 1336.83,-137.511 1339.42,-144.015"/>
</g>
<!-- Node28 -->
<g id="node29" class="node"><title>Node28</title>
<polygon fill="white" stroke="#bfbfbf" points="1408.5,-118 1408.5,-137 1458.5,-137 1458.5,-118 1408.5,-118"/>
<text text-anchor="middle" x="1433.5" y="-125" font-family="Helvetica,sans-Serif" font-size="10.00">TTree.h</text>
</g>
<!-- Node0&#45;&gt;Node28 -->
<g id="edge35" class="edge"><title>Node0&#45;&gt;Node28</title>
<path fill="none" stroke="midnightblue" d="M1170.52,-182.238C1232.93,-176.217 1323.13,-164.532 1399.5,-143 1401.79,-142.354 1404.14,-141.59 1406.47,-140.756"/>
<polygon fill="midnightblue" stroke="midnightblue" points="1407.8,-143.992 1415.81,-137.058 1405.23,-137.482 1407.8,-143.992"/>
</g>
<!-- Node29 -->
<g id="node30" class="node"><title>Node29</title>
<polygon fill="white" stroke="#bfbfbf" points="1476.5,-118 1476.5,-137 1562.5,-137 1562.5,-118 1476.5,-118"/>
<text text-anchor="middle" x="1519.5" y="-125" font-family="Helvetica,sans-Serif" font-size="10.00">TClonesArray.h</text>
</g>
<!-- Node0&#45;&gt;Node29 -->
<g id="edge36" class="edge"><title>Node0&#45;&gt;Node29</title>
<path fill="none" stroke="midnightblue" d="M1170.76,-182.213C1246.52,-175.665 1365.78,-163.197 1467.5,-143 1472.25,-142.057 1477.2,-140.904 1482.07,-139.665"/>
<polygon fill="midnightblue" stroke="midnightblue" points="1483.14,-143.004 1491.89,-137.038 1481.33,-136.242 1483.14,-143.004"/>
</g>
<!-- Node30 -->
<g id="node31" class="node"><title>Node30</title>
<polygon fill="white" stroke="#bfbfbf" points="1580.5,-118 1580.5,-137 1646.5,-137 1646.5,-118 1580.5,-118"/>
<text text-anchor="middle" x="1613.5" y="-125" font-family="Helvetica,sans-Serif" font-size="10.00">PParticle.h</text>
</g>
<!-- Node0&#45;&gt;Node30 -->
<g id="edge37" class="edge"><title>Node0&#45;&gt;Node30</title>
<path fill="none" stroke="midnightblue" d="M1170.53,-186.396C1265.38,-183.126 1432.08,-173.19 1571.5,-143 1575,-142.242 1578.61,-141.283 1582.18,-140.22"/>
<polygon fill="midnightblue" stroke="midnightblue" points="1583.56,-143.452 1591.98,-137.03 1581.39,-136.795 1583.56,-143.452"/>
</g>
<!-- Node31 -->
<g id="node32" class="node"><title>Node31</title>
<g id="a_node32"><a xlink:href="dilepton__radiative__corrections_8h.html" target="_top" xlink:title="detail/dilepton_radiative\l_corrections.h">
<polygon fill="white" stroke="black" points="224,-112.5 224,-142.5 355,-142.5 355,-112.5 224,-112.5"/>
<text text-anchor="start" x="232" y="-130.5" font-family="Helvetica,sans-Serif" font-size="10.00">detail/dilepton_radiative</text>
<text text-anchor="middle" x="289.5" y="-119.5" font-family="Helvetica,sans-Serif" font-size="10.00">_corrections.h</text>
</a>
</g>
</g>
<!-- Node0&#45;&gt;Node31 -->
<g id="edge38" class="edge"><title>Node0&#45;&gt;Node31</title>
<path fill="none" stroke="midnightblue" d="M1018.3,-186.209C885.908,-182.442 605.02,-171.553 369.5,-143 368.199,-142.842 366.888,-142.677 365.568,-142.505"/>
<polygon fill="midnightblue" stroke="midnightblue" points="365.719,-138.992 355.328,-141.063 364.743,-145.923 365.719,-138.992"/>
</g>
<!-- Node32 -->
<g id="node33" class="node"><title>Node32</title>
<g id="a_node33"><a xlink:href="dimuon__radiative__corrections_8h.html" target="_top" xlink:title="detail/dimuon_radiative\l_corrections.h">
<polygon fill="white" stroke="black" points="77.5,-112.5 77.5,-142.5 205.5,-142.5 205.5,-112.5 77.5,-112.5"/>
<text text-anchor="start" x="85.5" y="-130.5" font-family="Helvetica,sans-Serif" font-size="10.00">detail/dimuon_radiative</text>
<text text-anchor="middle" x="141.5" y="-119.5" font-family="Helvetica,sans-Serif" font-size="10.00">_corrections.h</text>
</a>
</g>
</g>
<!-- Node0&#45;&gt;Node32 -->
<g id="edge40" class="edge"><title>Node0&#45;&gt;Node32</title>
<path fill="none" stroke="midnightblue" d="M1018.25,-187.812C866.973,-186.63 518.102,-179.879 215.791,-143.027"/>
<polygon fill="midnightblue" stroke="midnightblue" points="215.862,-139.509 205.509,-141.759 215.006,-146.457 215.862,-139.509"/>
</g>
<!-- Node5 -->
<g id="node6" class="node"><title>Node5</title>
<polygon fill="white" stroke="#bfbfbf" points="1379,-56.5 1379,-75.5 1478,-75.5 1478,-56.5 1379,-56.5"/>
<text text-anchor="middle" x="1428.5" y="-63.5" font-family="Helvetica,sans-Serif" font-size="10.00">easylogging++.h</text>
</g>
<!-- Node4&#45;&gt;Node5 -->
<g id="edge5" class="edge"><title>Node4&#45;&gt;Node5</title>
<path fill="none" stroke="midnightblue" d="M1122.14,-117.993C1129.67,-115.853 1137.86,-113.687 1145.5,-112 1186.94,-102.849 1298.84,-85.9084 1368.88,-75.6255"/>
<polygon fill="midnightblue" stroke="midnightblue" points="1369.51,-79.0708 1378.89,-74.1584 1368.49,-72.1447 1369.51,-79.0708"/>
</g>
<!-- Node7&#45;&gt;Node2 -->
<g id="edge28" class="edge"><title>Node7&#45;&gt;Node2</title>
<path fill="none" stroke="midnightblue" d="M783.745,-124.973C668.921,-120.811 384.747,-107.409 356.5,-76 350.556,-69.3907 350.761,-62.7876 356.5,-56 386.196,-20.8798 526.494,-13.1575 590.961,-11.4682"/>
<polygon fill="midnightblue" stroke="midnightblue" points="591.434,-14.9584 601.352,-11.2314 591.274,-7.96023 591.434,-14.9584"/>
</g>
<!-- Node8 -->
<g id="node9" class="node"><title>Node8</title>
<g id="a_node9"><a xlink:href="string_8h.html" target="_top" xlink:title="base/std_ext/string.h">
<polygon fill="white" stroke="black" points="997,-56.5 997,-75.5 1114,-75.5 1114,-56.5 997,-56.5"/>
<text text-anchor="middle" x="1055.5" y="-63.5" font-family="Helvetica,sans-Serif" font-size="10.00">base/std_ext/string.h</text>
</a>
</g>
</g>
<!-- Node7&#45;&gt;Node8 -->
<g id="edge8" class="edge"><title>Node7&#45;&gt;Node8</title>
<path fill="none" stroke="midnightblue" d="M863.594,-117.975C903.099,-107.482 970.279,-89.6367 1013.76,-78.087"/>
<polygon fill="midnightblue" stroke="midnightblue" points="1014.7,-81.4591 1023.47,-75.5091 1012.9,-74.6937 1014.7,-81.4591"/>
</g>
<!-- Node11 -->
<g id="node12" class="node"><title>Node11</title>
<g id="a_node12"><a xlink:href="misc_8h.html" target="_top" xlink:title="base/std_ext/misc.h">
<polygon fill="white" stroke="black" points="1171,-56.5 1171,-75.5 1284,-75.5 1284,-56.5 1171,-56.5"/>
<text text-anchor="middle" x="1227.5" y="-63.5" font-family="Helvetica,sans-Serif" font-size="10.00">base/std_ext/misc.h</text>
</a>
</g>
</g>
<!-- Node7&#45;&gt;Node11 -->
<g id="edge13" class="edge"><title>Node7&#45;&gt;Node11</title>
<path fill="none" stroke="midnightblue" d="M879.267,-119.323C949.595,-108.756 1081.27,-88.9719 1161,-76.9912"/>
<polygon fill="midnightblue" stroke="midnightblue" points="1161.57,-80.4452 1170.94,-75.4981 1160.53,-73.5229 1161.57,-80.4452"/>
</g>
<!-- Node12 -->
<g id="node13" class="node"><title>Node12</title>
<polygon fill="white" stroke="#bfbfbf" points="1331,-0.5 1331,-19.5 1394,-19.5 1394,-0.5 1331,-0.5"/>
<text text-anchor="middle" x="1362.5" y="-7.5" font-family="Helvetica,sans-Serif" font-size="10.00">functional</text>
</g>
<!-- Node7&#45;&gt;Node12 -->
<g id="edge32" class="edge"><title>Node7&#45;&gt;Node12</title>
<path fill="none" stroke="midnightblue" d="M879.148,-123.016C989.581,-114.696 1256.45,-93.0892 1293.5,-76 1316.99,-65.1661 1337.64,-43.1378 1350.09,-27.7423"/>
<polygon fill="midnightblue" stroke="midnightblue" points="1353.06,-29.6235 1356.43,-19.5788 1347.53,-25.3296 1353.06,-29.6235"/>
</g>
<!-- Node16 -->
<g id="node17" class="node"><title>Node16</title>
<polygon fill="white" stroke="#bfbfbf" points="1412,-0.5 1412,-19.5 1469,-19.5 1469,-0.5 1412,-0.5"/>
<text text-anchor="middle" x="1440.5" y="-7.5" font-family="Helvetica,sans-Serif" font-size="10.00">memory</text>
</g>
<!-- Node7&#45;&gt;Node16 -->
<g id="edge27" class="edge"><title>Node7&#45;&gt;Node16</title>
<path fill="none" stroke="midnightblue" d="M879.105,-122.651C993.786,-113.228 1278.96,-88.8335 1320.5,-76 1357.9,-64.4431 1397.02,-40.7258 1420.05,-25.3605"/>
<polygon fill="midnightblue" stroke="midnightblue" points="1422.31,-28.0575 1428.61,-19.5388 1418.37,-22.2697 1422.31,-28.0575"/>
</g>
<!-- Node17 -->
<g id="node18" class="node"><title>Node17</title>
<polygon fill="white" stroke="#bfbfbf" points="365.5,-56.5 365.5,-75.5 411.5,-75.5 411.5,-56.5 365.5,-56.5"/>
<text text-anchor="middle" x="388.5" y="-63.5" font-family="Helvetica,sans-Serif" font-size="10.00">TFile.h</text>
</g>
<!-- Node7&#45;&gt;Node17 -->
<g id="edge21" class="edge"><title>Node7&#45;&gt;Node17</title>
<path fill="none" stroke="midnightblue" d="M783.972,-123.02C708.92,-117.01 558.303,-102.867 422.022,-76.0384"/>
<polygon fill="midnightblue" stroke="midnightblue" points="422.311,-72.5271 411.819,-74.0003 420.94,-79.3915 422.311,-72.5271"/>
</g>
<!-- Node18 -->
<g id="node19" class="node"><title>Node18</title>
<polygon fill="white" stroke="#bfbfbf" points="430,-56.5 430,-75.5 503,-75.5 503,-56.5 430,-56.5"/>
<text text-anchor="middle" x="466.5" y="-63.5" font-family="Helvetica,sans-Serif" font-size="10.00">TDirectory.h</text>
</g>
<!-- Node7&#45;&gt;Node18 -->
<g id="edge22" class="edge"><title>Node7&#45;&gt;Node18</title>
<path fill="none" stroke="midnightblue" d="M783.958,-119.618C723.389,-110.712 615.229,-94.3502 513.457,-76.2988"/>
<polygon fill="midnightblue" stroke="midnightblue" points="513.773,-72.7999 503.314,-74.4901 512.544,-79.6912 513.773,-72.7999"/>
</g>
<!-- Node19 -->
<g id="node20" class="node"><title>Node19</title>
<polygon fill="white" stroke="#bfbfbf" points="521,-56.5 521,-75.5 574,-75.5 574,-56.5 521,-56.5"/>
<text text-anchor="middle" x="547.5" y="-63.5" font-family="Helvetica,sans-Serif" font-size="10.00">TError.h</text>
</g>
<!-- Node7&#45;&gt;Node19 -->
<g id="edge23" class="edge"><title>Node7&#45;&gt;Node19</title>
<path fill="none" stroke="midnightblue" d="M785.912,-117.986C738.015,-108.878 660.259,-93.6331 584.419,-76.3601"/>
<polygon fill="midnightblue" stroke="midnightblue" points="584.748,-72.8447 574.218,-74.0217 583.183,-79.6678 584.748,-72.8447"/>
</g>
<!-- Node20 -->
<g id="node21" class="node"><title>Node20</title>
<polygon fill="white" stroke="#bfbfbf" points="592,-56.5 592,-75.5 639,-75.5 639,-56.5 592,-56.5"/>
<text text-anchor="middle" x="615.5" y="-63.5" font-family="Helvetica,sans-Serif" font-size="10.00">TList.h</text>
</g>
<!-- Node7&#45;&gt;Node20 -->
<g id="edge24" class="edge"><title>Node7&#45;&gt;Node20</title>
<path fill="none" stroke="midnightblue" d="M800.552,-117.975C760.333,-106.896 690.366,-87.6227 648.953,-76.2151"/>
<polygon fill="midnightblue" stroke="midnightblue" points="649.646,-72.7756 639.075,-73.4941 647.787,-79.5242 649.646,-72.7756"/>
</g>
<!-- Node21 -->
<g id="node22" class="node"><title>Node21</title>
<polygon fill="white" stroke="#bfbfbf" points="657,-56.5 657,-75.5 734,-75.5 734,-56.5 657,-56.5"/>
<text text-anchor="middle" x="695.5" y="-63.5" font-family="Helvetica,sans-Serif" font-size="10.00">TCollection.h</text>
</g>
<!-- Node7&#45;&gt;Node21 -->
<g id="edge25" class="edge"><title>Node7&#45;&gt;Node21</title>
<path fill="none" stroke="midnightblue" d="M812.015,-117.975C789.09,-107.945 750.815,-91.2002 724.425,-79.6546"/>
<polygon fill="midnightblue" stroke="midnightblue" points="725.514,-76.3108 714.949,-75.5091 722.708,-82.7239 725.514,-76.3108"/>
</g>
<!-- Node22 -->
<g id="node23" class="node"><title>Node22</title>
<polygon fill="white" stroke="#bfbfbf" points="752.5,-56.5 752.5,-75.5 798.5,-75.5 798.5,-56.5 752.5,-56.5"/>
<text text-anchor="middle" x="775.5" y="-63.5" font-family="Helvetica,sans-Serif" font-size="10.00">TKey.h</text>
</g>
<!-- Node7&#45;&gt;Node22 -->
<g id="edge26" class="edge"><title>Node7&#45;&gt;Node22</title>
<path fill="none" stroke="midnightblue" d="M823.477,-117.975C814.91,-108.873 801.139,-94.241 790.543,-82.983"/>
<polygon fill="midnightblue" stroke="midnightblue" points="792.911,-80.3923 783.509,-75.5091 787.814,-85.1899 792.911,-80.3923"/>
</g>
<!-- Node23 -->
<g id="node24" class="node"><title>Node23</title>
<polygon fill="white" stroke="#bfbfbf" points="816.5,-56.5 816.5,-75.5 846.5,-75.5 846.5,-56.5 816.5,-56.5"/>
<text text-anchor="middle" x="831.5" y="-63.5" font-family="Helvetica,sans-Serif" font-size="10.00">list</text>
</g>
<!-- Node7&#45;&gt;Node23 -->
<g id="edge29" class="edge"><title>Node7&#45;&gt;Node23</title>
<path fill="none" stroke="midnightblue" d="M831.5,-117.975C831.5,-109.58 831.5,-96.4806 831.5,-85.6631"/>
<polygon fill="midnightblue" stroke="midnightblue" points="835,-85.5091 831.5,-75.5091 828,-85.5091 835,-85.5091"/>
</g>
<!-- Node24 -->
<g id="node25" class="node"><title>Node24</title>
<polygon fill="white" stroke="#bfbfbf" points="864.5,-56.5 864.5,-75.5 896.5,-75.5 896.5,-56.5 864.5,-56.5"/>
<text text-anchor="middle" x="880.5" y="-63.5" font-family="Helvetica,sans-Serif" font-size="10.00">set</text>
</g>
<!-- Node7&#45;&gt;Node24 -->
<g id="edge30" class="edge"><title>Node7&#45;&gt;Node24</title>
<path fill="none" stroke="midnightblue" d="M838.521,-117.975C845.943,-108.962 857.833,-94.5246 867.067,-83.3118"/>
<polygon fill="midnightblue" stroke="midnightblue" points="869.837,-85.4534 873.493,-75.5091 864.434,-81.0034 869.837,-85.4534"/>
</g>
<!-- Node25 -->
<g id="node26" class="node"><title>Node25</title>
<polygon fill="white" stroke="#bfbfbf" points="914.5,-56.5 914.5,-75.5 978.5,-75.5 978.5,-56.5 914.5,-56.5"/>
<text text-anchor="middle" x="946.5" y="-63.5" font-family="Helvetica,sans-Serif" font-size="10.00">stdexcept</text>
</g>
<!-- Node7&#45;&gt;Node25 -->
<g id="edge31" class="edge"><title>Node7&#45;&gt;Node25</title>
<path fill="none" stroke="midnightblue" d="M847.977,-117.975C867.105,-108.078 898.873,-91.6416 921.152,-80.1151"/>
<polygon fill="midnightblue" stroke="midnightblue" points="922.781,-83.213 930.054,-75.5091 919.564,-76.9958 922.781,-83.213"/>
</g>
<!-- Node8&#45;&gt;Node2 -->
<g id="edge9" class="edge"><title>Node8&#45;&gt;Node2</title>
<path fill="none" stroke="midnightblue" d="M996.899,-57.2115C993.72,-56.7991 990.571,-56.3931 987.5,-56 865.102,-40.3346 719.428,-22.5999 655.856,-14.9054"/>
<polygon fill="midnightblue" stroke="midnightblue" points="656.015,-11.3993 645.667,-13.6732 655.174,-18.3487 656.015,-11.3993"/>
</g>
<!-- Node8&#45;&gt;Node3 -->
<g id="edge11" class="edge"><title>Node8&#45;&gt;Node3</title>
<path fill="none" stroke="midnightblue" d="M1055.5,-56.083C1055.5,-49.0059 1055.5,-38.8611 1055.5,-29.9865"/>
<polygon fill="midnightblue" stroke="midnightblue" points="1059,-29.751 1055.5,-19.7511 1052,-29.7511 1059,-29.751"/>
</g>
<!-- Node9 -->
<g id="node10" class="node"><title>Node9</title>
<polygon fill="white" stroke="#bfbfbf" points="950.5,-0.5 950.5,-19.5 1006.5,-19.5 1006.5,-0.5 950.5,-0.5"/>
<text text-anchor="middle" x="978.5" y="-7.5" font-family="Helvetica,sans-Serif" font-size="10.00">sstream</text>
</g>
<!-- Node8&#45;&gt;Node9 -->
<g id="edge10" class="edge"><title>Node8&#45;&gt;Node9</title>
<path fill="none" stroke="midnightblue" d="M1043.13,-56.324C1031.34,-48.0577 1013.37,-35.4527 999.364,-25.6322"/>
<polygon fill="midnightblue" stroke="midnightblue" points="1001.04,-22.5307 990.841,-19.6545 997.018,-28.2619 1001.04,-22.5307"/>
</g>
<!-- Node10 -->
<g id="node11" class="node"><title>Node10</title>
<polygon fill="white" stroke="#bfbfbf" points="238,-0.5 238,-19.5 285,-19.5 285,-0.5 238,-0.5"/>
<text text-anchor="middle" x="261.5" y="-7.5" font-family="Helvetica,sans-Serif" font-size="10.00">vector</text>
</g>
<!-- Node8&#45;&gt;Node10 -->
<g id="edge12" class="edge"><title>Node8&#45;&gt;Node10</title>
<path fill="none" stroke="midnightblue" d="M996.924,-56.9839C993.739,-56.6302 990.582,-56.2991 987.5,-56 721.337,-30.1691 398.76,-16.2818 295.21,-12.2531"/>
<polygon fill="midnightblue" stroke="midnightblue" points="295.178,-8.74941 285.051,-11.8623 294.909,-15.7442 295.178,-8.74941"/>
</g>
<!-- Node11&#45;&gt;Node2 -->
<g id="edge20" class="edge"><title>Node11&#45;&gt;Node2</title>
<path fill="none" stroke="midnightblue" d="M1170.95,-59.9441C1046.72,-48.8372 753.297,-22.6044 655.7,-13.8788"/>
<polygon fill="midnightblue" stroke="midnightblue" points="655.841,-10.3775 645.569,-12.973 655.217,-17.3497 655.841,-10.3775"/>
</g>
<!-- Node11&#45;&gt;Node3 -->
<g id="edge14" class="edge"><title>Node11&#45;&gt;Node3</title>
<path fill="none" stroke="midnightblue" d="M1200.25,-56.4435C1171.06,-47.2801 1124.58,-32.6876 1092.19,-22.5192"/>
<polygon fill="midnightblue" stroke="midnightblue" points="1093.22,-19.1726 1082.63,-19.5164 1091.12,-25.8512 1093.22,-19.1726"/>
</g>
<!-- Node11&#45;&gt;Node12 -->
<g id="edge15" class="edge"><title>Node11&#45;&gt;Node12</title>
<path fill="none" stroke="midnightblue" d="M1248.89,-56.4435C1271.21,-47.5171 1306.4,-33.4387 1331.71,-23.3168"/>
<polygon fill="midnightblue" stroke="midnightblue" points="1333.22,-26.4801 1341.21,-19.5164 1330.62,-19.9807 1333.22,-26.4801"/>
</g>
<!-- Node13 -->
<g id="node14" class="node"><title>Node13</title>
<polygon fill="white" stroke="#bfbfbf" points="1105,-0.5 1105,-19.5 1152,-19.5 1152,-0.5 1105,-0.5"/>
<text text-anchor="middle" x="1128.5" y="-7.5" font-family="Helvetica,sans-Serif" font-size="10.00">cmath</text>
</g>
<!-- Node11&#45;&gt;Node13 -->
<g id="edge16" class="edge"><title>Node11&#45;&gt;Node13</title>
<path fill="none" stroke="midnightblue" d="M1211.59,-56.324C1195.86,-47.7428 1171.56,-34.486 1153.29,-24.5224"/>
<polygon fill="midnightblue" stroke="midnightblue" points="1154.82,-21.3704 1144.37,-19.6545 1151.47,-27.5157 1154.82,-21.3704"/>
</g>
<!-- Node14 -->
<g id="node15" class="node"><title>Node14</title>
<polygon fill="white" stroke="#bfbfbf" points="1170.5,-0.5 1170.5,-19.5 1226.5,-19.5 1226.5,-0.5 1170.5,-0.5"/>
<text text-anchor="middle" x="1198.5" y="-7.5" font-family="Helvetica,sans-Serif" font-size="10.00">cxxabi.h</text>
</g>
<!-- Node11&#45;&gt;Node14 -->
<g id="edge17" class="edge"><title>Node11&#45;&gt;Node14</title>
<path fill="none" stroke="midnightblue" d="M1222.71,-56.083C1218.74,-48.6913 1212.97,-37.9533 1208.07,-28.8111"/>
<polygon fill="midnightblue" stroke="midnightblue" points="1211.01,-26.9051 1203.2,-19.7511 1204.85,-30.217 1211.01,-26.9051"/>
</g>
<!-- Node15 -->
<g id="node16" class="node"><title>Node15</title>
<polygon fill="white" stroke="#bfbfbf" points="1244.5,-0.5 1244.5,-19.5 1312.5,-19.5 1312.5,-0.5 1244.5,-0.5"/>
<text text-anchor="middle" x="1278.5" y="-7.5" font-family="Helvetica,sans-Serif" font-size="10.00">type_traits</text>
</g>
<!-- Node11&#45;&gt;Node15 -->
<g id="edge18" class="edge"><title>Node11&#45;&gt;Node15</title>
<path fill="none" stroke="midnightblue" d="M1235.92,-56.083C1243.35,-48.2195 1254.35,-36.5688 1263.31,-27.0813"/>
<polygon fill="midnightblue" stroke="midnightblue" points="1265.91,-29.4244 1270.24,-19.7511 1260.82,-24.618 1265.91,-29.4244"/>
</g>
<!-- Node11&#45;&gt;Node16 -->
<g id="edge19" class="edge"><title>Node11&#45;&gt;Node16</title>
<path fill="none" stroke="midnightblue" d="M1261.25,-56.4435C1299.53,-46.7383 1361.84,-30.9429 1401.99,-20.7639"/>
<polygon fill="midnightblue" stroke="midnightblue" points="1402.86,-24.1544 1411.69,-18.3042 1401.14,-17.369 1402.86,-24.1544"/>
</g>
<!-- Node31&#45;&gt;Node10 -->
<g id="edge39" class="edge"><title>Node31&#45;&gt;Node10</title>
<path fill="none" stroke="midnightblue" d="M286.067,-112.337C281.022,-91.5271 271.6,-52.6632 266.005,-29.5834"/>
<polygon fill="midnightblue" stroke="midnightblue" points="269.359,-28.5633 263.602,-19.6695 262.556,-30.2126 269.359,-28.5633"/>
</g>
<!-- Node32&#45;&gt;Node10 -->
<g id="edge41" class="edge"><title>Node32&#45;&gt;Node10</title>
<path fill="none" stroke="midnightblue" d="M156.214,-112.337C178.72,-90.6758 221.549,-49.4533 245.051,-26.8324"/>
<polygon fill="midnightblue" stroke="midnightblue" points="247.715,-29.1259 252.493,-19.6695 242.861,-24.0825 247.715,-29.1259"/>
</g>
</g>
</svg>
